<svg width="150" height="150" viewBox="0 0 150 150" fill="none" xmlns="http://www.w3.org/2000/svg">
<g clip-path="url(#clip0_1_3)">
<path d="M145 0H5C2.23858 0 0 2.23858 0 5V145C0 147.761 2.23858 150 5 150H145C147.761 150 150 147.761 150 145V5C150 2.23858 147.761 0 145 0Z" fill="#18181B"/>
<path d="M128.917 52.344C94.914 63.602 64.327 80.523 38.723 105.99C31.424 113.249 22.348 122.82 18.739 132.706C17.174 136.995 24.857 133.663 26.059 133.027C42.881 124.121 53.618 102.333 62.554 86.754C74.579 65.791 85.147 43.512 94.667 21.3C95.418 19.546 99.291 12.027 98.834 12.75C95.558 17.938 92.306 22.958 89.43 28.406C76.674 52.575 65.504 78.615 62.019 105.99C61.46 110.382 60.599 118.368 65.867 120.417C73.3 123.307 82.712 118.633 89.056 115.18C103.798 107.157 116.941 95.36 131.802 87.93" stroke="#F2D0C4" stroke-width="5" stroke-linecap="round"/>
</g>
<defs>
<clipPath id="clip0_1_3">
<rect width="150" height="150" fill="white"/>
</clipPath>
</defs>
</svg>

